<?xml version="1.0" standalone="no"?>
<!DOCTYPE svg PUBLIC "-//W3C//DTD SVG 20010904//EN"
 "http://www.w3.org/TR/2001/REC-SVG-20010904/DTD/svg10.dtd">
<svg version="1.0" xmlns="http://www.w3.org/2000/svg"
 width="700.000000pt" height="700.000000pt" viewBox="0 0 700.000000 700.000000"
 preserveAspectRatio="xMidYMid meet">
<metadata>
Created by potrace 1.14, written by Peter Selinger 2001-2017
</metadata>
<g transform="translate(0.000000,700.000000) scale(0.100000,-0.100000)"
fill="#000000" stroke="none">
<path d="M4689 6646 c-4 -4 -113 -9 -434 -21 l-150 -6 -135 -56 c-135 -55
-397 -166 -435 -183 -11 -5 -49 -21 -85 -36 -36 -14 -83 -34 -105 -44 -22 -10
-92 -39 -155 -65 -63 -26 -160 -67 -215 -90 -55 -24 -156 -66 -225 -95 -69
-28 -143 -59 -165 -69 -49 -22 -155 -67 -390 -164 -221 -92 -463 -194 -490
-207 -11 -5 -92 -39 -180 -75 -88 -37 -173 -72 -190 -80 -16 -7 -129 -55 -250
-105 -121 -51 -281 -118 -355 -150 -74 -31 -269 -113 -432 -181 l-298 -124 5
-40 c3 -22 7 -70 9 -107 3 -37 7 -72 11 -78 3 -5 3 -10 -2 -10 -4 0 -8 -11 -8
-24 0 -13 3 -22 6 -20 11 6 15 -76 5 -86 -6 -6 -5 -14 2 -23 9 -10 8 -17 -1
-27 -9 -10 -9 -11 1 -6 6 4 12 6 12 4 1 -2 3 -30 6 -63 3 -33 7 -68 9 -78 2
-12 -1 -17 -9 -14 -7 3 -13 -1 -13 -8 0 -7 7 -11 15 -8 10 4 13 -1 11 -18 -2
-13 1 -30 5 -38 7 -11 5 -13 -10 -8 -16 6 -17 5 -4 -5 15 -13 23 -61 24 -145
0 -23 2 -40 5 -38 3 2 7 -10 8 -27 2 -24 -1 -29 -15 -24 -15 5 -15 5 -1 -6 8
-7 18 -21 22 -32 6 -14 4 -17 -10 -12 -15 6 -16 5 -1 -11 15 -17 32 -117 19
-109 -4 3 -8 -5 -8 -17 -2 -18 0 -19 8 -7 7 11 9 8 7 -15 -2 -19 -8 -29 -16
-27 -8 1 -11 -2 -7 -8 3 -6 11 -8 16 -5 5 4 10 3 10 -2 5 -27 9 -66 13 -123 3
-36 8 -80 11 -97 4 -21 2 -33 -5 -33 -6 0 -8 5 -4 12 5 7 3 8 -6 3 -10 -6 -10
-10 3 -20 16 -11 19 -24 32 -154 6 -51 4 -62 -7 -55 -10 6 -9 3 1 -10 8 -10
16 -27 17 -39 13 -132 17 -192 18 -244 1 -35 4 -63 9 -63 4 0 7 -7 7 -16 0 -9
-5 -12 -12 -8 -7 4 -5 -1 4 -12 14 -16 15 -23 6 -32 -7 -7 -8 -12 -2 -12 14 0
14 -33 0 -42 -7 -5 -7 -8 2 -8 9 0 12 -10 11 -28 -2 -15 0 -32 4 -39 4 -7 10
-49 14 -95 5 -65 11 -86 27 -103 34 -32 97 -84 110 -89 8 -3 7 -7 -3 -14 -8
-6 -9 -12 -3 -16 6 -3 12 -1 14 6 5 13 28 2 28 -13 0 -6 -6 -7 -12 -3 -10 6
-10 5 -1 -7 6 -8 12 -18 13 -24 1 -5 3 -12 6 -14 2 -2 2 6 -1 17 -2 12 0 24 6
27 5 4 9 2 9 -2 0 -5 12 -16 28 -25 43 -27 82 -64 75 -72 -4 -4 0 -4 10 0 12
4 17 1 17 -11 0 -9 4 -14 9 -10 5 3 15 -1 23 -8 7 -7 39 -32 70 -56 32 -24 58
-45 58 -48 0 -2 -5 -1 -12 3 -7 4 -8 3 -4 -5 4 -6 12 -9 17 -5 14 8 50 -26 42
-39 -3 -6 -1 -7 6 -3 6 4 24 -3 40 -16 57 -46 75 -58 84 -58 5 0 7 -7 4 -14
-4 -10 -1 -13 7 -10 8 3 21 -5 30 -18 9 -12 16 -19 16 -15 0 4 6 3 13 -3 6 -6
68 -54 137 -106 175 -134 191 -147 212 -167 10 -9 22 -17 27 -17 4 0 24 -15
44 -34 20 -18 38 -31 41 -28 4 3 6 -2 6 -12 0 -9 4 -15 9 -11 5 3 21 -6 35
-20 14 -14 29 -25 33 -25 5 0 15 -9 23 -19 7 -11 17 -18 21 -15 4 2 17 -8 28
-22 12 -15 21 -24 21 -20 0 4 30 -17 68 -46 37 -30 91 -71 120 -93 28 -21 52
-43 52 -49 0 -5 3 -7 6 -3 4 3 12 1 18 -6 7 -7 27 -23 46 -37 18 -14 44 -35
57 -47 13 -13 27 -23 31 -23 4 0 19 -10 34 -23 60 -50 68 -57 73 -57 3 0 15
-9 27 -19 13 -11 79 -63 148 -116 69 -52 139 -106 155 -119 17 -14 48 -38 70
-55 22 -17 45 -34 50 -39 6 -4 48 -37 95 -72 47 -36 92 -70 100 -77 72 -58
331 -253 335 -253 3 0 153 73 333 161 180 89 476 235 657 324 182 89 524 258
760 375 237 116 632 312 879 433 247 122 607 301 799 397 l351 175 33 60 c19
33 39 71 46 85 6 14 14 27 17 30 18 18 25 52 20 105 -4 33 -6 75 -5 92 1 18
-1 33 -6 33 -9 0 -6 20 5 39 6 10 5 12 -2 7 -7 -4 -12 -1 -12 9 0 10 6 15 13
12 7 -3 13 3 13 14 0 13 -4 15 -12 8 -10 -8 -14 1 -19 35 -4 24 -4 49 -1 55 4
5 1 13 -5 16 -5 4 -8 13 -6 19 3 7 2 31 -3 54 -4 24 -3 42 2 42 5 0 5 7 0 18
-5 9 -9 29 -8 45 1 15 -1 27 -5 27 -3 0 -6 6 -6 13 0 15 -13 156 -18 194 -2
16 -6 62 -10 103 -3 41 -8 83 -11 92 -3 9 -67 71 -144 138 -76 66 -145 126
-152 133 -7 6 -45 39 -83 72 -39 33 -72 62 -75 65 -3 3 -54 48 -115 100 -60
52 -117 101 -126 109 -9 9 -29 27 -45 41 -82 70 -172 149 -203 177 -20 18 -59
52 -88 75 -29 24 -52 46 -53 50 0 8 -65 145 -175 373 -43 88 -103 214 -135
280 -32 66 -90 188 -130 270 -40 83 -91 191 -115 240 -51 108 -157 328 -233
485 -31 63 -56 117 -57 120 0 3 -38 82 -84 175 -46 94 -96 197 -112 231 -27
57 -51 89 -60 80z"/>
<path d="M75 3860 c3 -5 8 -10 11 -10 2 0 4 5 4 10 0 6 -5 10 -11 10 -5 0 -7
-4 -4 -10z"/>
<path d="M90 3682 c0 -5 7 -9 15 -9 8 0 12 4 9 9 -3 4 -9 8 -15 8 -5 0 -9 -4
-9 -8z"/>
<path d="M95 3620 c3 -5 8 -10 11 -10 2 0 4 5 4 10 0 6 -5 10 -11 10 -5 0 -7
-4 -4 -10z"/>
<path d="M114 3452 c0 -10 6 -19 13 -19 8 0 9 6 2 19 -5 10 -11 18 -12 18 -2
0 -3 -8 -3 -18z"/>
<path d="M130 3409 c0 -5 -5 -7 -11 -3 -8 4 -8 0 0 -15 15 -27 16 -26 17 4 1
14 0 25 -2 25 -2 0 -4 -5 -4 -11z"/>
<path d="M146 3143 c-6 -14 -5 -15 5 -6 7 7 10 15 7 18 -3 3 -9 -2 -12 -12z"/>
<path d="M133 3075 c0 -7 6 -11 14 -8 7 3 13 6 13 8 0 2 -6 5 -13 8 -8 3 -14
-1 -14 -8z"/>
<path d="M160 3049 c0 -5 -4 -7 -10 -4 -6 4 -7 -1 -3 -11 5 -13 3 -15 -8 -9
-8 5 -11 4 -6 0 14 -16 36 -14 30 3 -4 10 -2 13 5 8 8 -5 10 -2 6 8 -7 18 -14
21 -14 5z"/>
<path d="M150 2940 c0 -5 5 -10 11 -10 5 0 7 5 4 10 -3 6 -8 10 -11 10 -2 0
-4 -4 -4 -10z"/>
<path d="M6940 2846 c0 -2 8 -10 18 -17 15 -13 16 -12 3 4 -13 16 -21 21 -21
13z"/>
<path d="M6950 2781 c0 -6 4 -12 8 -15 5 -3 9 1 9 9 0 8 -4 15 -9 15 -4 0 -8
-4 -8 -9z"/>
<path d="M6970 2591 c0 -6 4 -13 10 -16 6 -3 7 1 4 9 -7 18 -14 21 -14 7z"/>
<path d="M431 2347 c-8 -10 -7 -14 2 -14 8 0 14 6 14 14 0 7 -1 13 -2 13 -2 0
-8 -6 -14 -13z"/>
<path d="M475 2300 c3 -5 8 -10 11 -10 2 0 4 5 4 10 0 6 -5 10 -11 10 -5 0 -7
-4 -4 -10z"/>
<path d="M535 2240 c3 -5 8 -10 11 -10 2 0 4 5 4 10 0 6 -5 10 -11 10 -5 0 -7
-4 -4 -10z"/>
<path d="M610 2201 c0 -6 4 -13 10 -16 6 -3 7 1 4 9 -7 18 -14 21 -14 7z"/>
<path d="M670 2160 c0 -5 5 -10 11 -10 5 0 7 5 4 10 -3 6 -8 10 -11 10 -2 0
-4 -4 -4 -10z"/>
<path d="M710 2140 c0 -5 5 -10 10 -10 6 0 10 5 10 10 0 6 -4 10 -10 10 -5 0
-10 -4 -10 -10z"/>
<path d="M840 2046 c0 -2 7 -7 16 -10 8 -3 12 -2 9 4 -6 10 -25 14 -25 6z"/>
</g>
</svg>
